<?xml version="1.0" standalone="no"?>
<!DOCTYPE svg PUBLIC "-//W3C//DTD SVG 20010904//EN"
 "http://www.w3.org/TR/2001/REC-SVG-20010904/DTD/svg10.dtd">
<svg version="1.0" xmlns="http://www.w3.org/2000/svg"
 width="5000.000000pt" height="5000.000000pt" viewBox="0 0 5000.000000 5000.000000"
 preserveAspectRatio="xMidYMid meet">
<metadata>
Created by potrace 1.14, written by Peter Selinger 2001-2017
</metadata>
<g transform="translate(0.000000,5000.000000) scale(0.100000,-0.100000)"
fill="#000000" stroke="none">
<path d="M24801 36173 c-106 -2837 -197 -5201 -202 -5253 -158 -1754 -1028
-3309 -2439 -4357 -889 -661 -1949 -1060 -3080 -1162 -52 -5 -2416 -96 -5252
-202 -2837 -107 -5158 -196 -5158 -199 0 -3 2269 -90 5043 -193 2773 -104
5116 -193 5207 -198 2040 -118 3879 -1258 4900 -3034 436 -760 699 -1601 779
-2495 5 -52 96 -2416 202 -5252 107 -2837 196 -5158 199 -5158 3 0 90 2269
193 5043 104 2773 193 5116 198 5207 118 2040 1258 3879 3034 4900 809 464
1719 735 2655 789 91 5 2434 94 5208 198 2773 103 5042 190 5042 193 0 3
-2321 92 -5157 199 -2837 106 -5201 197 -5253 202 -1534 138 -2936 829 -3953
1949 -949 1044 -1495 2338 -1576 3730 -5 91 -94 2434 -198 5208 -103 2773
-190 5042 -193 5042 -3 0 -92 -2321 -199 -5157z"/>
</g>
</svg>
